# xmcd
#
# Track frame offsets: 
#        150
#        20307
#        36849
#        52656
#        68463
#        86243
#        103929
#        121511
#        136680
#        150177
#        162338
#        181443
#        196104
#        210007
#        226766
#
# Disc length: 3236 seconds
#
# Revision: 1
# Processed by: cddbd v1.5.1PL0 Copyright (c) Steve Scherf et al.
# Submitted via: ExactAudioCopy v0.95a3
#
DISCID=a40ca20f
DTITLE=Johnny Cash - The Man Comes Around
DYEAR=2002
DGENRE=Country
TTITLE0=The Man Comes Around
TTITLE1=Hurt
TTITLE2=Give My Love To Rose
TTITLE3=Bridge Over Troubled Water
TTITLE4=I Hung My Head
TTITLE5=The First Time I Ever Saw Your Face
TTITLE6=Personal Jesus
TTITLE7=In My Life
TTITLE8=Sam Hall
TTITLE9=Danny Boy
TTITLE10=Desperado
TTITLE11=I'm So Lonesome I Could Cry
TTITLE12=Tear Stained Letter
TTITLE13=The Streets of Laredo
TTITLE14=We'll Meet Again
EXTD=
EXTT0=
EXTT1=
EXTT2=
EXTT3=
EXTT4=
EXTT5=
EXTT6=
EXTT7=
EXTT8=
EXTT9=
EXTT10=
EXTT11=
EXTT12=
EXTT13=
EXTT14=
PLAYORDER=
